<?xml version="1.0" encoding="iso-8859-1"?>
<!-- Uploaded to: SVG Repo, www.svgrepo.com, Generator: SVG Repo Mixer Tools -->
<svg fill="#000000" height="800px" width="800px" version="1.1" id="Layer_1" xmlns="http://www.w3.org/2000/svg" xmlns:xlink="http://www.w3.org/1999/xlink" 
	 viewBox="0 0 508 508" xml:space="preserve">
<g>
	<g>
		<path d="M493.9,85.1H300.2C158.5,85.1,0,201.4,0,357.1c0,7.8,6.3,14.1,14.1,14.1h479.8c7.8,0,14.1-6.3,14.1-14.1V99.2
			C508,91.4,501.7,85.1,493.9,85.1z M479.8,343L479.8,343H28.7C38,210.6,176.2,113.3,300.2,113.3h179.6V343z"/>
	</g>
</g>
<g>
	<g>
		<path d="M437.4,141.6H300.2c-70.8,0-147.6,36.3-195.6,92.6c-3.6,4.2-4.4,10.1-2.1,15.1s7.3,8.2,12.8,8.2h322.1
			c7.8,0,14.1-6.3,14.1-14.1v-87.7C451.5,147.9,445.2,141.6,437.4,141.6z M423.3,229.3H390c0-7.8-6.3-14.1-14.1-14.1h-94.6
			c-7.8,0-14.1,6.3-14.1,14.1H149.1c42.1-36.8,98.5-59.5,151-59.5h123.2V229.3z"/>
	</g>
</g>
<g>
	<g>
		<path d="M435.2,394.7H14.1C6.3,394.7,0,401,0,408.8s6.3,14.1,14.1,14.1h421.1c7.8,0,14.1-6.3,14.1-14.1
			C449.3,401,443,394.7,435.2,394.7z"/>
	</g>
</g>
</svg>